<?xml version="1.0" encoding="UTF-8"?>
<!DOCTYPE svg PUBLIC "-//W3C//DTD SVG 1.1//EN" "http://www.w3.org/Graphics/SVG/1.1/DTD/svg11.dtd">
<!-- Creator: CorelDRAW X8 -->
<svg xmlns="http://www.w3.org/2000/svg" xml:space="preserve" width="20px" height="20px" version="1.1" style="shape-rendering:geometricPrecision; text-rendering:geometricPrecision; image-rendering:optimizeQuality; fill-rule:evenodd; clip-rule:evenodd"
viewBox="0 0 20 20"
 xmlns:xlink="http://www.w3.org/1999/xlink">
 <defs>
  <style type="text/css">
   <![CDATA[
    .fil0 {fill:none}
    .fil1 {fill:#FEFEFE}
    .fil2 {fill:#FEFEFE;fill-rule:nonzero}
   ]]>
  </style>
 </defs>
 <g id="Capa_x0020_1">
  <metadata id="CorelCorpID_0Corel-Layer"/>
  <g id="_3216472393984">
   <rect class="fil0" width="20.0012" height="20.001"/>
   <g>
    <path class="fil1" d="M5 4c-4,2 -3,10 -2,15 0,-3 0,-5 0,-5 0,0 1,1 1,1 0,-1 1,-3 1,-4 0,0 3,3 3,3 0,0 0,-2 0,-2 0,0 4,1 4,2 0,0 0,0 0,0 1,-1 0,-2 0,-3 -1,0 3,3 3,3 0,0 0,-2 0,-2 1,1 2,3 2,3 0,1 0,2 0,3 0,0 2,-8 0,-9 -1,-1 -2,-5 -3,-5 0,0 0,1 0,1 0,0 -1,-3 -3,-4l0 1c0,0 -1,-2 -1,-2 -2,0 -4,7 -5,4z"/>
    <g>
     <path class="fil1" d="M7 17l-1 1 0 -1c0,0 0,0 0,0 0,0 -1,1 -1,1 0,0 1,1 1,1 1,0 1,-1 1,-1 0,0 0,0 0,-1z"/>
     <path class="fil1" d="M14 17l-1 1 1 -1c0,0 0,0 -1,0 0,0 0,1 0,1 0,0 0,1 0,1 1,0 1,-1 1,-1 0,0 0,0 0,-1z"/>
     <path class="fil2" d="M13 15l0 1c0,0 0,0 0,0 0,0 0,0 -1,0 0,0 0,0 0,0 0,0 0,0 0,0l0 1c0,0 0,0 0,0 0,0 -1,1 -1,1 0,0 1,0 1,0 0,0 0,0 0,0l0 1c0,0 0,0 0,0 0,0 0,0 0,0 0,0 1,0 1,0 0,0 0,0 0,0l0 1c0,0 0,0 -1,0 0,0 0,0 0,0 0,0 0,0 0,0 0,0 -1,0 -1,0 0,0 0,0 0,0 0,0 0,-1 0,-1l0 -1c0,0 0,0 0,0 0,0 0,0 -1,0 0,0 0,0 0,0 0,0 0,0 0,0l0 -1c0,0 0,0 0,0 0,0 0,0 0,0 1,0 1,0 1,0 0,0 0,0 0,0l0 -1c0,0 0,0 0,-1 0,0 0,0 0,0 0,0 1,0 1,0 0,0 0,0 0,0 0,0 0,0 0,0 1,0 1,0 1,0z"/>
     <path class="fil2" d="M7 15c0,0 0,0 0,0 1,0 1,0 1,0 0,0 0,0 0,0 0,0 0,0 1,0 0,0 0,0 0,0 0,1 0,1 0,1l0 1c0,0 0,0 0,0 0,0 0,0 1,0 0,0 0,0 0,0 0,0 0,0 0,0l0 1c0,0 0,0 0,0 0,0 0,0 0,0 -1,0 -1,0 -1,0 0,0 0,0 0,0l0 1c0,0 0,1 0,1 0,0 0,0 0,0 0,0 -1,0 -1,0 0,0 0,0 0,0 0,0 0,0 -1,0 0,0 0,0 0,0l0 -1c0,0 0,0 0,0 0,0 0,0 0,0 1,0 1,0 1,0 0,0 0,0 0,0l0 -1c0,0 0,0 0,0 0,0 0,0 1,0 -1,0 -1,-1 -1,-1 0,0 0,0 0,0l0 -1c0,0 0,0 0,0 0,0 0,0 -1,0 0,0 0,0 0,0 0,0 0,0 0,0l0 -1z"/>
     <path class="fil2" d="M7 15l0 1c0,0 -2,0 -2,0 0,0 0,0 0,0 -1,0 -1,0 -1,0 0,0 0,0 0,0 0,1 0,2 0,3 0,0 0,0 0,0 0,0 0,0 1,0 0,0 0,0 0,0 0,0 2,0 2,0l0 1c0,0 -2,0 -2,0 0,0 0,0 0,0 -1,0 -1,0 -1,0 0,0 0,0 0,0 0,0 0,0 -1,0 0,0 0,-1 0,-1 0,-1 0,-2 0,-3 0,0 0,0 0,-1 1,0 1,0 1,0 0,0 0,0 0,0 0,0 0,0 1,0 0,0 0,0 0,0 0,0 2,0 2,0z"/>
     <path class="fil2" d="M13 15l0 1c0,0 2,0 2,0 0,0 0,0 0,0 0,0 1,0 1,0 0,0 0,0 0,0 0,1 0,2 0,3 0,0 0,0 0,0 0,0 -1,0 -1,0 0,0 0,0 0,0 0,0 -2,0 -2,0l0 1c0,0 2,0 2,0 0,0 0,0 0,0 1,0 1,0 1,0 0,0 0,0 0,0 0,0 0,0 0,0 0,0 1,-1 1,-1 0,-1 0,-2 0,-3 0,0 -1,0 -1,-1 0,0 0,0 0,0 0,0 0,0 0,0 0,0 0,0 -1,0 0,0 0,0 0,0 0,0 -2,0 -2,0z"/>
    </g>
   </g>
  </g>
 </g>
</svg>
